<svg xmlns="http://www.w3.org/2000/svg" xmlns:xlink="http://www.w3.org/1999/xlink" width="500" zoomAndPan="magnify" viewBox="0 0 375 374.999991" height="500" preserveAspectRatio="xMidYMid meet" version="1.2"><g id="18ecaea4a4"><path style=" stroke:none;fill-rule:nonzero;fill:#64709e;fill-opacity:1;" d="M 330.492188 304.398438 C 329.652344 304.984375 328.78125 305.558594 327.886719 306.113281 C 318.234375 312.203125 305.542969 317.269531 290.832031 321.304688 C 232.542969 337.320312 142.523438 337.320312 84.226562 321.304688 C 70.191406 317.453125 58.050781 312.691406 48.585938 306.984375 C 47.183594 306.140625 45.839844 305.277344 44.550781 304.394531 C -11.222656 265.832031 24.53125 209.15625 40.265625 201.265625 C 40.265625 201.265625 19.578125 75.507812 186.042969 65.800781 L 188.996094 65.800781 C 355.472656 75.507812 334.773438 201.265625 334.773438 201.265625 C 350.515625 209.164062 386.300781 265.839844 330.492188 304.398438 Z M 330.492188 304.398438 "/><path style=" stroke:none;fill-rule:nonzero;fill:#64709e;fill-opacity:1;" d="M 169.890625 80.617188 C 167.675781 80.121094 125.664062 66.097656 141.128906 48.871094 C 156.589844 31.648438 173.585938 50.347656 173.585938 50.347656 C 173.585938 50.347656 177.523438 20.078125 215.699219 30.660156 C 253.875 41.238281 217.914062 89.226562 217.914062 89.226562 "/><path style=" stroke:none;fill-rule:nonzero;fill:#fffef6;fill-opacity:1;" d="M 328.847656 304.511719 C 328.179688 305.632812 327.285156 306.523438 326.15625 307.183594 C 316.742188 312.800781 304.6875 317.519531 290.839844 321.3125 C 232.550781 337.328125 142.53125 337.328125 84.234375 321.3125 C 71.152344 317.71875 59.667969 313.320312 50.5 308.105469 C 49.207031 307.371094 48.199219 306.355469 47.484375 305.050781 C 31.089844 275.230469 38.109375 239.277344 63 228.050781 C 63.707031 227.742188 64.351562 227.339844 64.9375 226.839844 C 65.519531 226.339844 66.015625 225.761719 66.421875 225.109375 C 66.832031 224.457031 67.132812 223.757812 67.328125 223.015625 C 67.523438 222.273438 67.601562 221.515625 67.566406 220.746094 C 67.203125 213.894531 67.546875 207.074219 68.605469 200.292969 C 69.664062 193.507812 71.410156 186.910156 73.847656 180.488281 C 82.328125 158.554688 101.007812 141.671875 124.089844 135.019531 C 151.824219 127.03125 167.015625 139.929688 173.105469 147.503906 C 179.671875 160.359375 184.054688 180.402344 182.710938 211.59375 C 182.695312 212.105469 182.734375 212.617188 182.820312 213.121094 C 182.910156 213.628906 183.050781 214.121094 183.238281 214.597656 C 183.429688 215.078125 183.664062 215.53125 183.945312 215.960938 C 184.222656 216.394531 184.546875 216.792969 184.90625 217.15625 C 185.269531 217.523438 185.660156 217.847656 186.089844 218.136719 C 186.515625 218.421875 186.96875 218.660156 187.445312 218.855469 C 187.917969 219.050781 188.410156 219.195312 188.914062 219.292969 C 189.421875 219.390625 189.929688 219.433594 190.445312 219.425781 C 190.953125 219.433594 191.453125 219.390625 191.949219 219.296875 C 192.449219 219.203125 192.933594 219.0625 193.402344 218.875 C 193.871094 218.683594 194.320312 218.453125 194.742188 218.175781 C 195.164062 217.898438 195.558594 217.578125 195.917969 217.222656 C 196.277344 216.867188 196.597656 216.480469 196.882812 216.0625 C 197.164062 215.644531 197.402344 215.199219 197.597656 214.734375 C 197.792969 214.265625 197.941406 213.785156 198.039062 213.289062 C 198.140625 212.792969 198.1875 212.289062 198.1875 211.785156 C 197.972656 197.890625 199.28125 168.101562 212.898438 148.21875 L 213.015625 148.050781 L 213.089844 147.949219 C 215.210938 145.148438 234.316406 121.820312 271.726562 142.632812 C 274.621094 144.25 277.273438 146.195312 279.691406 148.464844 C 307.414062 174.398438 308.328125 208.34375 307.550781 221.066406 C 307.511719 221.800781 307.578125 222.527344 307.75 223.246094 C 307.925781 223.960938 308.199219 224.636719 308.574219 225.273438 C 308.945312 225.910156 309.40625 226.476562 309.949219 226.976562 C 310.488281 227.476562 311.09375 227.890625 311.757812 228.210938 C 339.625 241.9375 345.550781 275.71875 328.847656 304.511719 Z M 328.847656 304.511719 "/><path style=" stroke:none;fill-rule:nonzero;fill:#feb0a3;fill-opacity:1;" d="M 293.351562 229.8125 C 293.351562 230.296875 293.246094 230.773438 293.03125 231.25 C 292.816406 231.722656 292.496094 232.183594 292.078125 232.628906 C 291.65625 233.078125 291.140625 233.5 290.527344 233.902344 C 289.917969 234.304688 289.222656 234.675781 288.445312 235.019531 C 287.664062 235.359375 286.820312 235.664062 285.90625 235.933594 C 284.988281 236.203125 284.023438 236.429688 283.007812 236.613281 C 281.992188 236.796875 280.941406 236.9375 279.863281 237.03125 C 278.785156 237.125 277.695312 237.175781 276.59375 237.175781 C 275.496094 237.175781 274.40625 237.125 273.324219 237.03125 C 272.246094 236.9375 271.199219 236.796875 270.183594 236.613281 C 269.164062 236.429688 268.199219 236.203125 267.285156 235.933594 C 266.371094 235.664062 265.523438 235.359375 264.746094 235.019531 C 263.96875 234.675781 263.273438 234.304688 262.660156 233.902344 C 262.050781 233.5 261.535156 233.078125 261.113281 232.628906 C 260.691406 232.183594 260.375 231.722656 260.160156 231.25 C 259.945312 230.773438 259.835938 230.296875 259.835938 229.8125 C 259.835938 229.332031 259.945312 228.851562 260.160156 228.378906 C 260.375 227.902344 260.691406 227.441406 261.113281 226.996094 C 261.535156 226.550781 262.050781 226.125 262.660156 225.722656 C 263.273438 225.324219 263.96875 224.949219 264.746094 224.609375 C 265.523438 224.265625 266.371094 223.960938 267.285156 223.695312 C 268.199219 223.425781 269.164062 223.199219 270.183594 223.011719 C 271.199219 222.828125 272.246094 222.6875 273.324219 222.59375 C 274.40625 222.5 275.496094 222.453125 276.59375 222.453125 C 277.695312 222.453125 278.785156 222.5 279.863281 222.59375 C 280.941406 222.6875 281.992188 222.828125 283.007812 223.011719 C 284.023438 223.199219 284.988281 223.425781 285.90625 223.695312 C 286.820312 223.960938 287.664062 224.265625 288.445312 224.609375 C 289.222656 224.949219 289.917969 225.324219 290.527344 225.722656 C 291.140625 226.125 291.65625 226.550781 292.078125 226.996094 C 292.496094 227.441406 292.816406 227.902344 293.03125 228.378906 C 293.246094 228.851562 293.351562 229.332031 293.351562 229.8125 Z M 293.351562 229.8125 "/><path style=" stroke:none;fill-rule:nonzero;fill:#feb0a3;fill-opacity:1;" d="M 119.929688 228.964844 C 119.929688 229.449219 119.820312 229.925781 119.609375 230.398438 C 119.394531 230.875 119.074219 231.335938 118.652344 231.78125 C 118.234375 232.226562 117.714844 232.652344 117.105469 233.054688 C 116.496094 233.457031 115.800781 233.828125 115.023438 234.167969 C 114.242188 234.511719 113.398438 234.816406 112.480469 235.085938 C 111.566406 235.351562 110.601562 235.578125 109.585938 235.765625 C 108.570312 235.949219 107.519531 236.089844 106.441406 236.183594 C 105.363281 236.277344 104.273438 236.324219 103.171875 236.324219 C 102.070312 236.324219 100.984375 236.277344 99.902344 236.183594 C 98.824219 236.089844 97.777344 235.949219 96.761719 235.765625 C 95.742188 235.578125 94.777344 235.351562 93.863281 235.085938 C 92.949219 234.816406 92.101562 234.511719 91.324219 234.167969 C 90.546875 233.828125 89.851562 233.457031 89.238281 233.054688 C 88.628906 232.652344 88.113281 232.226562 87.691406 231.78125 C 87.269531 231.335938 86.953125 230.875 86.738281 230.398438 C 86.523438 229.925781 86.414062 229.449219 86.414062 228.964844 C 86.414062 228.480469 86.523438 228.003906 86.738281 227.527344 C 86.953125 227.054688 87.269531 226.59375 87.691406 226.148438 C 88.113281 225.699219 88.628906 225.277344 89.238281 224.875 C 89.851562 224.472656 90.546875 224.101562 91.324219 223.757812 C 92.101562 223.417969 92.949219 223.113281 93.863281 222.84375 C 94.777344 222.574219 95.742188 222.347656 96.761719 222.164062 C 97.777344 221.980469 98.824219 221.839844 99.902344 221.746094 C 100.984375 221.652344 102.070312 221.605469 103.171875 221.605469 C 104.273438 221.605469 105.363281 221.652344 106.441406 221.746094 C 107.519531 221.839844 108.570312 221.980469 109.585938 222.164062 C 110.601562 222.347656 111.566406 222.574219 112.480469 222.84375 C 113.398438 223.113281 114.242188 223.417969 115.023438 223.757812 C 115.800781 224.101562 116.496094 224.472656 117.105469 224.875 C 117.714844 225.277344 118.234375 225.699219 118.652344 226.148438 C 119.074219 226.59375 119.394531 227.054688 119.609375 227.527344 C 119.820312 228.003906 119.929688 228.480469 119.929688 228.964844 Z M 119.929688 228.964844 "/><path style=" stroke:none;fill-rule:nonzero;fill:#ffc95a;fill-opacity:1;" d="M 158.203125 202.949219 C 159.242188 201.722656 215.175781 200.917969 220.265625 202.949219 C 225.355469 204.976562 202.457031 258.449219 186.90625 258.316406 C 178.835938 258.296875 152.601562 209.554688 158.203125 202.949219 Z M 158.203125 202.949219 "/><path style=" stroke:none;fill-rule:nonzero;fill:#634a3a;fill-opacity:1;" d="M 255.332031 198.222656 C 255.332031 199.179688 255.238281 200.128906 255.050781 201.066406 C 254.863281 202.007812 254.585938 202.917969 254.21875 203.804688 C 253.851562 204.6875 253.402344 205.527344 252.871094 206.324219 C 252.339844 207.121094 251.734375 207.855469 251.058594 208.53125 C 250.378906 209.210938 249.640625 209.816406 248.84375 210.347656 C 248.050781 210.878906 247.207031 211.328125 246.324219 211.695312 C 245.4375 212.058594 244.523438 212.335938 243.585938 212.523438 C 242.644531 212.710938 241.695312 212.804688 240.738281 212.804688 C 239.78125 212.804688 238.832031 212.710938 237.890625 212.523438 C 236.953125 212.335938 236.039062 212.058594 235.152344 211.695312 C 234.269531 211.328125 233.429688 210.878906 232.632812 210.347656 C 231.835938 209.816406 231.097656 209.210938 230.421875 208.53125 C 229.742188 207.855469 229.136719 207.121094 228.605469 206.324219 C 228.074219 205.527344 227.625 204.6875 227.257812 203.804688 C 226.890625 202.917969 226.613281 202.007812 226.425781 201.066406 C 226.238281 200.128906 226.144531 199.179688 226.144531 198.222656 C 226.144531 197.265625 226.238281 196.316406 226.425781 195.378906 C 226.613281 194.441406 226.890625 193.527344 227.257812 192.644531 C 227.625 191.757812 228.074219 190.917969 228.605469 190.121094 C 229.136719 189.328125 229.742188 188.589844 230.421875 187.914062 C 231.097656 187.234375 231.835938 186.632812 232.632812 186.101562 C 233.429688 185.566406 234.269531 185.117188 235.152344 184.753906 C 236.039062 184.386719 236.953125 184.109375 237.890625 183.921875 C 238.832031 183.734375 239.78125 183.640625 240.738281 183.640625 C 241.695312 183.640625 242.644531 183.734375 243.585938 183.921875 C 244.523438 184.109375 245.4375 184.386719 246.324219 184.753906 C 247.207031 185.117188 248.050781 185.566406 248.84375 186.101562 C 249.640625 186.632812 250.378906 187.234375 251.058594 187.914062 C 251.734375 188.589844 252.339844 189.328125 252.871094 190.121094 C 253.402344 190.917969 253.851562 191.757812 254.21875 192.644531 C 254.585938 193.527344 254.863281 194.441406 255.050781 195.378906 C 255.238281 196.316406 255.332031 197.265625 255.332031 198.222656 Z M 255.332031 198.222656 "/><path style=" stroke:none;fill-rule:nonzero;fill:#f7f7fb;fill-opacity:1;" d="M 241.136719 198.554688 C 241.136719 198.945312 241.097656 199.332031 241.023438 199.714844 C 240.945312 200.097656 240.835938 200.46875 240.683594 200.828125 C 240.535156 201.191406 240.351562 201.53125 240.136719 201.855469 C 239.917969 202.179688 239.671875 202.480469 239.394531 202.757812 C 239.121094 203.035156 238.820312 203.28125 238.492188 203.496094 C 238.167969 203.714844 237.828125 203.898438 237.464844 204.046875 C 237.105469 204.195312 236.734375 204.308594 236.351562 204.382812 C 235.96875 204.460938 235.582031 204.5 235.191406 204.5 C 234.800781 204.5 234.414062 204.460938 234.03125 204.382812 C 233.644531 204.308594 233.273438 204.195312 232.914062 204.046875 C 232.554688 203.898438 232.210938 203.714844 231.886719 203.496094 C 231.5625 203.28125 231.261719 203.035156 230.984375 202.757812 C 230.707031 202.480469 230.460938 202.179688 230.246094 201.855469 C 230.027344 201.53125 229.84375 201.191406 229.695312 200.828125 C 229.546875 200.46875 229.433594 200.097656 229.355469 199.714844 C 229.28125 199.332031 229.242188 198.945312 229.242188 198.554688 C 229.242188 198.164062 229.28125 197.777344 229.355469 197.394531 C 229.433594 197.011719 229.546875 196.640625 229.695312 196.28125 C 229.84375 195.921875 230.027344 195.578125 230.246094 195.253906 C 230.460938 194.929688 230.707031 194.628906 230.984375 194.351562 C 231.261719 194.078125 231.5625 193.832031 231.886719 193.613281 C 232.210938 193.398438 232.554688 193.214844 232.914062 193.066406 C 233.273438 192.914062 233.644531 192.800781 234.03125 192.726562 C 234.414062 192.648438 234.800781 192.613281 235.191406 192.613281 C 235.582031 192.613281 235.96875 192.648438 236.351562 192.726562 C 236.734375 192.800781 237.105469 192.914062 237.464844 193.066406 C 237.828125 193.214844 238.167969 193.398438 238.492188 193.613281 C 238.820312 193.832031 239.121094 194.078125 239.394531 194.351562 C 239.671875 194.628906 239.917969 194.929688 240.136719 195.253906 C 240.351562 195.578125 240.535156 195.921875 240.683594 196.28125 C 240.835938 196.640625 240.945312 197.011719 241.023438 197.394531 C 241.097656 197.777344 241.136719 198.164062 241.136719 198.554688 Z M 241.136719 198.554688 "/><path style=" stroke:none;fill-rule:nonzero;fill:#634a3a;fill-opacity:1;" d="M 140.070312 200.070312 C 140.070312 201.027344 139.976562 201.972656 139.789062 202.914062 C 139.601562 203.851562 139.328125 204.765625 138.960938 205.648438 C 138.59375 206.53125 138.144531 207.375 137.609375 208.167969 C 137.078125 208.964844 136.472656 209.703125 135.796875 210.378906 C 135.117188 211.054688 134.382812 211.660156 133.585938 212.191406 C 132.789062 212.722656 131.949219 213.171875 131.0625 213.539062 C 130.175781 213.90625 129.265625 214.183594 128.324219 214.371094 C 127.386719 214.554688 126.4375 214.648438 125.476562 214.648438 C 124.519531 214.648438 123.570312 214.554688 122.632812 214.371094 C 121.691406 214.183594 120.777344 213.90625 119.894531 213.539062 C 119.007812 213.171875 118.167969 212.722656 117.371094 212.191406 C 116.574219 211.660156 115.835938 211.054688 115.160156 210.378906 C 114.484375 209.703125 113.878906 208.964844 113.34375 208.167969 C 112.8125 207.375 112.363281 206.53125 111.996094 205.648438 C 111.628906 204.765625 111.351562 203.851562 111.167969 202.914062 C 110.980469 201.972656 110.886719 201.027344 110.886719 200.070312 C 110.886719 199.113281 110.980469 198.164062 111.167969 197.222656 C 111.351562 196.285156 111.628906 195.375 111.996094 194.488281 C 112.363281 193.605469 112.8125 192.765625 113.34375 191.96875 C 113.878906 191.171875 114.484375 190.4375 115.160156 189.757812 C 115.835938 189.082031 116.574219 188.476562 117.371094 187.945312 C 118.167969 187.414062 119.007812 186.964844 119.894531 186.597656 C 120.777344 186.230469 121.691406 185.953125 122.632812 185.769531 C 123.570312 185.582031 124.519531 185.488281 125.476562 185.488281 C 126.4375 185.488281 127.386719 185.582031 128.324219 185.769531 C 129.265625 185.953125 130.175781 186.230469 131.0625 186.597656 C 131.949219 186.964844 132.789062 187.414062 133.585938 187.945312 C 134.382812 188.476562 135.117188 189.082031 135.796875 189.757812 C 136.472656 190.4375 137.078125 191.171875 137.609375 191.96875 C 138.144531 192.765625 138.59375 193.605469 138.960938 194.488281 C 139.328125 195.375 139.601562 196.285156 139.789062 197.222656 C 139.976562 198.164062 140.070312 199.113281 140.070312 200.070312 Z M 140.070312 200.070312 "/><path style=" stroke:none;fill-rule:nonzero;fill:#f7f7fb;fill-opacity:1;" d="M 125.878906 200.402344 C 125.878906 200.792969 125.839844 201.175781 125.761719 201.558594 C 125.6875 201.941406 125.574219 202.316406 125.425781 202.675781 C 125.273438 203.035156 125.09375 203.378906 124.875 203.703125 C 124.65625 204.027344 124.410156 204.328125 124.136719 204.601562 C 123.859375 204.878906 123.558594 205.125 123.234375 205.34375 C 122.910156 205.558594 122.566406 205.742188 122.207031 205.890625 C 121.84375 206.039062 121.472656 206.152344 121.089844 206.230469 C 120.707031 206.304688 120.320312 206.34375 119.929688 206.34375 C 119.539062 206.34375 119.152344 206.304688 118.769531 206.230469 C 118.386719 206.152344 118.015625 206.039062 117.652344 205.890625 C 117.292969 205.742188 116.949219 205.558594 116.625 205.34375 C 116.300781 205.125 116 204.878906 115.722656 204.601562 C 115.449219 204.328125 115.199219 204.027344 114.984375 203.703125 C 114.765625 203.378906 114.585938 203.035156 114.433594 202.675781 C 114.285156 202.316406 114.171875 201.941406 114.097656 201.558594 C 114.019531 201.175781 113.980469 200.792969 113.980469 200.402344 C 113.980469 200.011719 114.019531 199.625 114.097656 199.242188 C 114.171875 198.859375 114.285156 198.488281 114.433594 198.125 C 114.585938 197.765625 114.765625 197.421875 114.984375 197.097656 C 115.199219 196.773438 115.449219 196.472656 115.722656 196.199219 C 116 195.921875 116.300781 195.675781 116.625 195.460938 C 116.949219 195.242188 117.292969 195.058594 117.652344 194.910156 C 118.015625 194.761719 118.386719 194.648438 118.769531 194.570312 C 119.152344 194.496094 119.539062 194.457031 119.929688 194.457031 C 120.320312 194.457031 120.707031 194.496094 121.089844 194.570312 C 121.472656 194.648438 121.84375 194.761719 122.207031 194.910156 C 122.566406 195.058594 122.910156 195.242188 123.234375 195.460938 C 123.558594 195.675781 123.859375 195.921875 124.136719 196.199219 C 124.410156 196.472656 124.65625 196.773438 124.875 197.097656 C 125.09375 197.421875 125.273438 197.765625 125.425781 198.125 C 125.574219 198.488281 125.6875 198.859375 125.761719 199.242188 C 125.839844 199.625 125.878906 200.011719 125.878906 200.402344 Z M 125.878906 200.402344 "/></g></svg>